# xmcd
#
# Track frame offsets:
#  150
#  14651
#  29691
#  52170
#  67140
#  79497
#  92778
#  103774
#  121398
#  139415
#  158314
#  173298
#
# Disc length: 2677 seconds
#
# Revision: 1
# Processed by: cddbd v1.5.1PL2 Copyright (c) Steve Scherf et al.
# Submitted via: Collectorz.com_Music_Collector 6.11
#
DISCID=a70a730c
DTITLE=Lynwood Slim - Last Call
DYEAR=2006
DGENRE=Blues -  Blues Harmonica
TTITLE0=Well Alright, O.K. You Win
TTITLE1=All Night Long
TTITLE2=Wee Baby Blues
TTITLE3=I'm Tired
TTITLE4=Nothin' But The Blues
TTITLE5=You're A Pain
TTITLE6=Say It
TTITLE7=Me,Myself And I
TTITLE8=Across The Sea
TTITLE9=Not Your Clown
TTITLE10=I'm Sorry
TTITLE11=You Never Cried For Me
EXTD=
EXTT0=
EXTT1=
EXTT2=
EXTT3=
EXTT4=
EXTT5=
EXTT6=
EXTT7=
EXTT8=
EXTT9=
EXTT10=
EXTT11=
PLAYORDER=
